<svg width="22" height="19" viewBox="0 0 22 19" fill="none" xmlns="http://www.w3.org/2000/svg">
  <path fill-rule="evenodd" clip-rule="evenodd" d="M3.00679 2.71429H1.37453C1.00226 2.71429 0.680105 2.57999 0.408062 2.31138C0.136019 2.04278 0 1.72117 0 1.34654C0 0.971912 0.13244 0.653832 0.397324 0.392299C0.662208 0.130766 0.987943 0 1.37453 0H4.16655C4.42428 0 4.67126 0.0918899 4.90751 0.27567C5.14376 0.459449 5.29768 0.678571 5.36927 0.933036L5.75586 2.82031L20.9831 2.71429C21.3697 2.71429 21.6561 2.90513 21.8422 3.28683C22.0283 3.66853 22.0498 4.11384 21.9066 4.62277L19.8019 12.6172C19.7303 12.8858 19.5764 13.112 19.3401 13.2958C19.1039 13.4795 18.8497 13.5714 18.5777 13.5714H6.82971C6.57199 13.5714 6.325 13.4795 6.08875 13.2958C5.8525 13.112 5.69858 12.8858 5.62699 12.6172L3.00679 2.71429ZM14.3467 15.5223C14.7476 15.1265 15.2344 14.9286 15.8071 14.9286C16.3799 14.9286 16.8667 15.1265 17.2676 15.5223C17.6685 15.9182 17.8689 16.3988 17.8689 16.9643C17.8689 17.5298 17.6685 18.0104 17.2676 18.4062C16.8667 18.8021 16.3799 19 15.8071 19C15.2344 19 14.7476 18.8021 14.3467 18.4062C13.9458 18.0104 13.7453 17.5298 13.7453 16.9643C13.7453 16.3988 13.9458 15.9182 14.3467 15.5223ZM7.47402 15.5223C7.87493 15.1265 8.36174 14.9286 8.93446 14.9286C9.50719 14.9286 9.994 15.1265 10.3949 15.5223C10.7958 15.9182 10.9963 16.3988 10.9963 16.9643C10.9963 17.5298 10.7958 18.0104 10.3949 18.4062C9.994 18.8021 9.50719 19 8.93446 19C8.36174 19 7.87493 18.8021 7.47402 18.4062C7.07312 18.0104 6.87266 17.5298 6.87266 16.9643C6.87266 16.3988 7.07312 15.9182 7.47402 15.5223ZM7 5L8 11H18L19 5H7Z" fill="#3A404F"/>
</svg>
