<svg width="19" height="20" viewBox="0 0 19 20" fill="none" xmlns="http://www.w3.org/2000/svg">
  <path d="M18.9935 5.01976C18.9955 4.70884 18.9107 4.40256 18.7469 4.12978C18.5831 3.85699 18.3457 3.62667 18.0572 3.46051C17.7687 3.29434 17.4386 3.19779 17.0978 3.17996C16.7571 3.16212 16.4169 3.22359 16.1094 3.35856C16.0891 3.04545 15.9831 2.74194 15.801 2.47572C15.6189 2.20951 15.3666 1.98904 15.067 1.83443C14.7674 1.67982 14.4301 1.59598 14.0858 1.59056C13.7416 1.58514 13.4013 1.65831 13.096 1.8034C13.0616 1.35312 12.8557 0.927912 12.5139 0.601134C12.1721 0.274356 11.7158 0.0665049 11.2238 0.0134424C10.7317 -0.0396201 10.2348 0.0654338 9.81864 0.310479C9.40253 0.555524 9.09336 0.925191 8.94447 1.3557C8.62018 1.17852 8.24917 1.08486 7.87102 1.08472C7.59278 1.08549 7.31745 1.13628 7.0608 1.23417C6.80415 1.33205 6.57123 1.47512 6.37539 1.65516C6.17955 1.83521 6.02464 2.04869 5.91954 2.28337C5.81444 2.51806 5.76121 2.76933 5.76292 3.02279V10.4805C4.93519 9.53799 4.12687 8.60724 4.00401 8.44819C3.81699 8.17768 3.55731 7.95509 3.24953 7.8015C2.94174 7.64791 2.59603 7.56839 2.2451 7.57047C1.94743 7.56227 1.65109 7.60973 1.37434 7.70993C1.0976 7.81013 0.84634 7.96093 0.636068 8.15303C0.425796 8.34513 0.260976 8.57445 0.151782 8.82684C0.0425881 9.07923 -0.00866242 9.34932 0.00119404 9.62046C0.0593932 10.6808 2.30976 14.4273 3.82294 16.4655C6.11211 19.5523 8.29781 20 8.39481 20H15.1977C15.3264 19.9987 15.4512 19.9595 15.5533 19.8881C16.7145 18.9132 17.5543 17.6627 17.9783 16.277C18.6249 14.4568 18.9677 11.8413 19 8.28914L18.9935 5.01976ZM16.5 15.7895C16.1369 16.9107 15.8863 17.5757 15 18.4211H8.5C8.19607 18.3386 6.81064 18.2341 5 15.7895C3.18936 13.3448 1.46422 10.5233 1.43189 9.94601C1.42668 9.8227 1.44988 9.69976 1.5 9.58511C1.55012 9.47046 1.62605 9.36665 1.72289 9.28036C1.81828 9.19092 1.93312 9.12061 2.06007 9.07395C2.18701 9.02729 2.32326 9.00529 2.46008 9.00938C2.6309 9.00032 2.80114 9.03462 2.95184 9.10847C3.10254 9.18231 3.2278 9.29279 3.31366 9.42763C3.5012 9.68093 4.71754 11.204 5.5 12.1053L7 11.0526L7.06629 3.35856C7.05542 3.23844 7.07202 3.11758 7.11502 3.0036C7.15802 2.88961 7.2265 2.78499 7.31613 2.69634C7.40576 2.60768 7.5146 2.53692 7.63576 2.48852C7.75693 2.44011 7.74841 2.41512 7.88072 2.41512C8.01303 2.41512 8.1439 2.44011 8.26506 2.48852C8.38623 2.53692 8.49507 2.60768 8.5847 2.69634C8.67433 2.78499 8.74281 2.88961 8.78581 3.0036C8.82881 3.11758 8.84541 3.23844 8.83454 3.35856V9.58511H9.99852V2.28337C10.026 2.0666 10.1401 1.86661 10.3189 1.72145C10.4978 1.57628 10.729 1.49607 10.9685 1.49607C11.2081 1.49607 11.3212 1.57628 11.5 1.72145C11.6788 1.86661 11.7929 2.0666 11.8204 2.28337V9.58511L13.2304 9.66169V3.93723C13.2197 3.82109 13.2356 3.70418 13.2771 3.59391C13.3185 3.48365 13.3847 3.38242 13.4713 3.29663C13.5579 3.21083 13.6631 3.14235 13.7803 3.0955C13.8974 3.04866 14.024 3.02447 14.024 3.02447C14.024 3.02447 14.2785 3.04866 14.3956 3.0955C14.5128 3.14235 14.618 3.21083 14.7046 3.29663C14.7912 3.38242 14.8573 3.48365 14.8988 3.59391C14.9403 3.70418 14.9561 3.82109 14.9455 3.93723V10.2449H16.1094V5.35236C16.1281 5.15706 16.2264 4.97522 16.385 4.84274C16.5437 4.71025 16.7511 4.63676 16.9663 4.63676C17.1815 4.63676 17.3888 4.71025 17.5475 4.84274C17.7061 4.97522 17.7112 5.15706 17.7298 5.35236V8.28914C17.7104 11.7706 17.1208 14.0753 16.5 15.7895Z" fill="#3A404F"/>
</svg>
