<svg width="12" height="14" viewBox="0 0 12 14" fill="none" xmlns="http://www.w3.org/2000/svg">
  <path d="M6 7.01022e-09C4.41904 -7.37726e-05 2.90194 0.582229 1.77843 1.62035C0.654923 2.65847 0.0158096 4.0685 0 5.54398C0 9.37997 5.2875 13.65 5.5125 13.832C5.64835 13.9404 5.82124 14 6 14C6.17876 14 6.35165 13.9404 6.4875 13.832C6.75 13.65 12 9.37997 12 5.54398C11.9842 4.0685 11.3451 2.65847 10.2216 1.62035C9.09806 0.582229 7.58096 -7.37726e-05 6 7.01022e-09ZM6 7.69998C5.48082 7.69998 4.97331 7.55629 4.54163 7.28708C4.10995 7.01787 3.7735 6.63523 3.57482 6.18755C3.37614 5.73988 3.32415 5.24726 3.42544 4.77201C3.52672 4.29676 3.77673 3.86021 4.14384 3.51758C4.51096 3.17494 4.97869 2.9416 5.48789 2.84707C5.99709 2.75253 6.52489 2.80105 7.00454 2.98649C7.4842 3.17192 7.89417 3.48594 8.18261 3.88884C8.47105 4.29174 8.625 4.76542 8.625 5.24998C8.625 5.89976 8.34844 6.52293 7.85616 6.98239C7.36387 7.44185 6.69619 7.69998 6 7.69998Z" fill="#A8ABB1"/>
</svg>
