<svg width="23" height="25" viewBox="0 0 23 25" fill="none" xmlns="http://www.w3.org/2000/svg">
<path d="M18.808 16.58C17.7148 16.5796 16.6651 17.0095 15.8838 17.7774L8.26821 13.4772C8.4247 12.8286 8.4247 12.1519 8.26821 11.5033L15.8814 7.20306C16.5927 7.89787 17.5269 8.31576 18.517 8.38191C19.507 8.44806 20.4881 8.15815 21.2848 7.56409C22.0814 6.97003 22.6415 6.1106 22.8647 5.13966C23.088 4.16872 22.9599 3.14967 22.5033 2.26495C22.0467 1.38023 21.2915 0.687598 20.3729 0.311058C19.4542 -0.0654815 18.4321 -0.101344 17.4895 0.20989C16.5469 0.521124 15.7454 1.15913 15.2285 2.0097C14.7115 2.86026 14.5129 3.86785 14.6681 4.85206L6.87528 9.25454C6.26317 8.74236 5.51841 8.41597 4.72824 8.31361C3.93807 8.21125 3.13521 8.33716 2.41373 8.67658C1.69225 9.016 1.08202 9.55488 0.654532 10.2301C0.227043 10.9053 0 11.6889 0 12.489C0 13.2892 0.227043 14.0728 0.654532 14.748C1.08202 15.4232 1.69225 15.9621 2.41373 16.3015C3.13521 16.6409 3.93807 16.7668 4.72824 16.6645C5.51841 16.5621 6.26317 16.2357 6.87528 15.7235L14.6681 20.1284C14.5334 20.9787 14.6615 21.85 15.0352 22.6249C15.4088 23.3998 16.01 24.041 16.7578 24.4621C17.5055 24.8832 18.3639 25.0639 19.2171 24.9799C20.0702 24.8959 20.8773 24.5512 21.5294 23.9923C22.1814 23.4334 22.6472 22.6871 22.8639 21.8541C23.0806 21.021 23.0377 20.1413 22.7412 19.3335C22.4446 18.5257 21.9085 17.8286 21.2052 17.3363C20.502 16.8439 19.6653 16.58 18.808 16.58Z" fill="#CD6A03"/>
</svg>
