<svg width="36" height="23" viewBox="0 0 36 23" fill="none" xmlns="http://www.w3.org/2000/svg">
<path d="M3 14.1567C3.41667 14.1567 3.70833 13.9881 3.875 13.6511C4.04167 13.314 4.04167 12.9769 3.875 12.6399C3.70833 12.3028 3.41667 12.1343 3 12.1343C2.58333 12.1343 2.29167 12.3028 2.125 12.6399C1.95833 12.9769 1.95833 13.314 2.125 13.6511C2.29167 13.9881 2.58333 14.1567 3 14.1567ZM26.0156 13.2403C25.9115 13.1033 25.7109 12.84 25.4141 12.4503C25.1172 12.0606 24.901 11.7762 24.7656 11.5971C24.6302 11.418 24.4323 11.16 24.1719 10.8229C23.9115 10.4858 23.6901 10.2067 23.5078 9.98551C23.3255 9.76431 23.1146 9.51678 22.875 9.24291C22.6354 8.96905 22.401 8.71098 22.1719 8.46872L20.2188 10.6807C19.3542 11.6708 18.2682 12.1554 16.9609 12.1343C15.6536 12.1132 14.5833 11.5971 13.75 10.5859C13.1562 9.85911 12.862 9.02698 12.8672 8.08952C12.8724 7.15207 13.1771 6.32521 13.7812 5.60895L16.5469 2.35418C16.3177 2.23831 16.0521 2.15141 15.75 2.09348C15.4479 2.03555 15.2005 2.00395 15.0078 1.99868C14.8151 1.99341 14.5208 1.99605 14.125 2.00658C13.7292 2.01711 13.474 2.02238 13.3594 2.02238C12.401 2.02238 11.5781 2.36998 10.8906 3.06517L8.42188 5.56155H6V14.1567C6.05208 14.1567 6.16146 14.154 6.32812 14.1488C6.49479 14.1435 6.60938 14.1435 6.67188 14.1488C6.73438 14.154 6.83594 14.1646 6.97656 14.1804C7.11719 14.1962 7.22396 14.2199 7.29688 14.2515C7.36979 14.2831 7.46094 14.3278 7.57031 14.3858C7.67969 14.4437 7.77604 14.5148 7.85938 14.5991L12.5 19.2126C13.6979 20.3818 14.8802 20.9664 16.0469 20.9664C16.8594 20.9664 17.5104 20.7189 18 20.2238C18.5938 20.4345 19.1797 20.3923 19.7578 20.0974C20.3359 19.8025 20.7135 19.3548 20.8906 18.7544C21.6615 18.8176 22.3229 18.5859 22.875 18.0592C23.0833 17.8696 23.2708 17.63 23.4375 17.3403C23.6042 17.0507 23.6771 16.7847 23.6562 16.5424C23.7604 16.6478 23.9844 16.7004 24.3281 16.7004C24.776 16.7004 25.1771 16.5898 25.5312 16.3686C25.8854 16.1474 26.1432 15.8683 26.3047 15.5313C26.4661 15.1942 26.5286 14.8176 26.4922 14.4016C26.4557 13.9855 26.2969 13.5984 26.0156 13.2403ZM28.5 14.1567H30V6.06714H28.5469L26.0938 3.22317C25.4062 2.42264 24.526 2.02238 23.4531 2.02238H20.8438C19.9167 2.02238 19.1562 2.37524 18.5625 3.08097L15.2969 6.92033C15.0052 7.26793 14.8594 7.66293 14.8594 8.10532C14.8594 8.54772 15 8.94272 15.2812 9.29031C15.7292 9.82751 16.3021 10.1014 17 10.1119C17.6979 10.1224 18.276 9.86437 18.7344 9.33771L21.75 5.89334C22.0104 5.65108 22.2891 5.53785 22.5859 5.55365C22.8828 5.56945 23.1276 5.71165 23.3203 5.98024C23.513 6.24884 23.5573 6.5464 23.4531 6.87293C23.6198 7.07307 23.9115 7.40486 24.3281 7.86833C24.7448 8.33179 25.0573 8.68992 25.2656 8.94272C25.5677 9.32191 25.9974 9.87754 26.5547 10.6096C27.112 11.3417 27.4479 11.7867 27.5625 11.9447C28.1042 12.6399 28.4167 13.3772 28.5 14.1567ZM33 14.1567C33.4167 14.1567 33.7083 13.9881 33.875 13.6511C34.0417 13.314 34.0417 12.9769 33.875 12.6399C33.7083 12.3028 33.4167 12.1343 33 12.1343C32.5833 12.1343 32.2917 12.3028 32.125 12.6399C31.9583 12.9769 31.9583 13.314 32.125 13.6511C32.2917 13.9881 32.5833 14.1567 33 14.1567ZM36 5.05595V15.1679C36 15.4417 35.901 15.6787 35.7031 15.8788C35.5052 16.079 35.2708 16.179 35 16.179H28.2188C27.9375 16.8637 27.5104 17.4246 26.9375 17.8617C26.3646 18.2989 25.7135 18.5701 24.9844 18.6754C24.6406 19.181 24.2214 19.6102 23.7266 19.9631C23.2318 20.316 22.6979 20.5556 22.125 20.682C21.6875 21.2403 21.1432 21.6695 20.4922 21.9697C19.8411 22.2699 19.1719 22.3989 18.4844 22.3568C17.8594 22.7149 17.2031 22.9229 16.5156 22.9809C15.8281 23.0388 15.1641 22.9651 14.5234 22.7597C13.8828 22.5543 13.2734 22.2725 12.6953 21.9144C12.1172 21.5563 11.5781 21.1297 11.0781 20.6346L6.59375 16.179H1C0.729167 16.179 0.494792 16.079 0.296875 15.8788C0.0989583 15.6787 0 15.4417 0 15.1679V4.55036C0 4.27649 0.0989583 4.03949 0.296875 3.83936C0.494792 3.63923 0.729167 3.53917 1 3.53917H7.57812C7.72396 3.3917 7.96875 3.1389 8.3125 2.78077C8.65625 2.42264 8.90365 2.16985 9.05469 2.02238C9.20573 1.87492 9.4349 1.66425 9.74219 1.39039C10.0495 1.11652 10.3125 0.919025 10.5312 0.797892C10.75 0.67676 11.0156 0.542462 11.3281 0.394996C11.6406 0.247531 11.9635 0.144832 12.2969 0.0868992C12.6302 0.0289664 12.9844 0 13.3594 0H15.1875C16.2188 0 17.1615 0.294931 18.0156 0.884792C18.8698 0.294931 19.8125 0 20.8438 0H23.4531C23.8177 0 24.1667 0.0315997 24.5 0.0947991C24.8333 0.157999 25.1276 0.234364 25.3828 0.323897C25.638 0.413429 25.9062 0.552995 26.1875 0.742593C26.4688 0.932191 26.7005 1.09546 26.8828 1.23239C27.0651 1.36932 27.2891 1.57735 27.5547 1.85648C27.8203 2.13561 28.0234 2.35681 28.1641 2.52008C28.3047 2.68334 28.5182 2.93614 28.8047 3.27847C29.0911 3.6208 29.3073 3.87623 29.4531 4.04476H35C35.2708 4.04476 35.5052 4.14483 35.7031 4.34496C35.901 4.54509 36 4.78209 36 5.05595Z" fill="#CD6A03"/>
</svg>
