<svg width="12" height="18" viewBox="0 0 12 18" fill="none" xmlns="http://www.w3.org/2000/svg">
<path d="M2.02558 0.394933L2.94785 0.0853298C3.81356 -0.204474 4.73669 0.264432 5.10783 1.18064L5.84411 3.00586C6.16468 3.80057 5.98725 4.73568 5.40354 5.31709L3.78013 6.93531C3.87956 7.90372 4.18984 8.85683 4.70926 9.79464C5.20279 10.702 5.86471 11.4962 6.65582 12.1302L8.6058 11.4462C9.3455 11.1879 10.1504 11.4858 10.6029 12.1851L11.6598 13.8141C12.1869 14.6277 12.0926 15.7491 11.4386 16.4385L10.7375 17.1774C10.0398 17.9127 9.04294 18.18 8.12152 17.8776C5.94525 17.1648 3.9447 15.0489 2.119 11.5299C0.290736 8.00542 -0.354686 5.01379 0.183594 2.55856C0.409878 1.52535 1.11016 0.701837 2.02558 0.394933Z" fill="white"/>
</svg>
