<svg width="25" height="25" viewBox="0 0 25 25" fill="none" xmlns="http://www.w3.org/2000/svg">
<path d="M24.66 21.6143L19.7914 16.7466C19.5717 16.5269 19.2738 16.4048 18.9613 16.4048H18.1654C19.5131 14.6812 20.3139 12.5137 20.3139 10.1553C20.3139 4.54541 15.7675 0 10.1572 0C4.54685 0 0 4.54541 0 10.1553C0 15.7651 4.54636 20.3105 10.1572 20.3105C12.5156 20.3105 14.684 19.5098 16.4076 18.1621V18.958C16.4076 19.2705 16.5297 19.5684 16.7494 19.7881L21.6181 24.6558C22.077 25.1147 22.8192 25.1147 23.2733 24.6558L24.6552 23.2739C25.1141 22.8149 25.1141 22.0732 24.66 21.6143ZM10.1572 17.1855C6.27341 17.1855 3.12596 14.0439 3.12596 10.1553C3.12596 6.27197 6.26803 3.125 10.1572 3.125C14.0409 3.125 17.1884 6.2666 17.1884 10.1553C17.1884 14.0386 14.0463 17.1855 10.1572 17.1855Z" fill="#CD6A03"/>
</svg>
