<svg xmlns="http://www.w3.org/2000/svg" width="252" viewBox="0 0 252 144" height="144" version="1.0"><path fill="#FFF" d="M-25.2 -14.4H277.2V158.4H-25.2z"/><path fill="#545454" d="M-25.2 -14.4H277.2V158.4H-25.2z"/><g fill="#FFBD59"><g><g><path d="M 22.054688 0.878906 C 31.570312 0.878906 39.046875 -5.5 40.808594 -15.015625 L 32.394531 -15.015625 C 31.019531 -10.175781 27.113281 -7.09375 22.054688 -7.09375 C 15.507812 -7.09375 10.613281 -12.265625 10.613281 -19.195312 C 10.613281 -26.125 15.507812 -31.347656 22.054688 -31.347656 C 26.894531 -31.347656 30.742188 -28.488281 32.339844 -23.980469 L 40.644531 -23.980469 C 38.882812 -33.109375 31.402344 -39.324219 22.054688 -39.324219 C 10.722656 -39.324219 2.144531 -30.632812 2.144531 -19.195312 C 2.144531 -7.808594 10.722656 0.878906 22.054688 0.878906 Z M 22.054688 0.878906" transform="translate(4.184 62.325)"/></g></g></g><g fill="#FFBD59"><g><g><path d="M 22.660156 0.878906 C 34.375 0.878906 43.117188 -7.753906 43.117188 -19.25 C 43.117188 -30.6875 34.375 -39.324219 22.660156 -39.324219 C 10.890625 -39.324219 2.089844 -30.632812 2.089844 -19.25 C 2.089844 -7.808594 10.890625 0.878906 22.660156 0.878906 Z M 22.660156 -6.984375 C 15.785156 -6.984375 10.558594 -12.320312 10.558594 -19.25 C 10.558594 -26.179688 15.785156 -31.457031 22.660156 -31.457031 C 29.535156 -31.457031 34.648438 -26.234375 34.648438 -19.25 C 34.648438 -12.265625 29.535156 -6.984375 22.660156 -6.984375 Z M 22.660156 -6.984375" transform="translate(46.586 62.325)"/></g></g></g><g fill="#FFBD59"><g><g><path d="M 51.53125 0 L 45.59375 -38.5 L 37.234375 -38.5 L 26.785156 -14.847656 L 16.335938 -38.5 L 8.03125 -38.5 L 1.980469 0 L 10.449219 0 L 14.246094 -25.078125 L 25.738281 -0.0546875 L 27.773438 -0.0546875 L 39.269531 -25.078125 L 43.0625 0 Z M 51.53125 0" transform="translate(91.847 62.325)"/></g></g></g><g fill="#FFBD59"><g><g><path d="M 4.398438 0 L 12.703125 0 L 12.703125 -38.5 L 4.398438 -38.5 Z M 4.398438 0" transform="translate(145.468 62.325)"/></g></g></g><g fill="#FFBD59"><g><g><path d="M 28.765625 -38.5 L 28.765625 -15.015625 L 11.878906 -38.5 L 4.398438 -38.5 L 4.398438 0 L 12.539062 0 L 12.539062 -24.035156 L 29.972656 0 L 36.957031 0 L 36.957031 -38.5 Z M 28.765625 -38.5" transform="translate(162.627 62.325)"/></g></g></g><g fill="#FFBD59"><g><g><path d="M 21.285156 -20.074219 L 21.285156 -13.695312 L 32.832031 -13.695312 C 31.402344 -9.734375 27.058594 -7.09375 22.109375 -7.09375 C 15.179688 -7.09375 10.613281 -12.042969 10.613281 -19.195312 C 10.613281 -26.398438 15.289062 -31.347656 22.109375 -31.347656 C 26.949219 -31.347656 31.019531 -28.765625 32.667969 -24.640625 L 41.25 -24.640625 C 39.433594 -33.273438 31.511719 -39.324219 21.945312 -39.324219 C 10.558594 -39.324219 2.144531 -30.6875 2.144531 -19.195312 C 2.144531 -7.644531 10.78125 0.878906 22.109375 0.878906 C 33.660156 0.878906 41.742188 -8.03125 41.742188 -20.074219 Z M 21.285156 -20.074219" transform="translate(203.984 62.325)"/></g></g></g><g fill="#FFBD59"><g><g><path d="M 17.160156 0.769531 C 25.132812 0.769531 31.734375 -3.246094 31.734375 -11.550781 C 31.734375 -20.183594 24.363281 -22 18.535156 -23.484375 C 14.410156 -24.472656 11.109375 -25.300781 11.109375 -27.992188 C 11.109375 -30.523438 13.804688 -31.679688 16.5 -31.679688 C 19.632812 -31.679688 22.382812 -30.136719 22.382812 -26.785156 L 30.578125 -26.785156 C 30.578125 -34.484375 25.574219 -39.214844 16.71875 -39.214844 C 8.195312 -39.214844 2.75 -35.035156 2.75 -27.664062 C 2.75 -19.359375 9.789062 -17.652344 15.621094 -16.222656 C 19.800781 -15.289062 23.320312 -14.464844 23.320312 -11.441406 C 23.320312 -8.578125 20.238281 -6.929688 17.105469 -6.929688 C 13.695312 -6.929688 10.613281 -8.746094 10.613281 -12.429688 L 2.199219 -12.429688 C 2.199219 -4.179688 8.304688 0.769531 17.160156 0.769531 Z M 17.160156 0.769531" transform="translate(43.043 113.325)"/></g></g></g><g fill="#FFBD59"><g><g><path d="M 22.660156 0.878906 C 34.375 0.878906 43.117188 -7.753906 43.117188 -19.25 C 43.117188 -30.6875 34.375 -39.324219 22.660156 -39.324219 C 10.890625 -39.324219 2.089844 -30.632812 2.089844 -19.25 C 2.089844 -7.808594 10.890625 0.878906 22.660156 0.878906 Z M 22.660156 -6.984375 C 15.785156 -6.984375 10.558594 -12.320312 10.558594 -19.25 C 10.558594 -26.179688 15.785156 -31.457031 22.660156 -31.457031 C 29.535156 -31.457031 34.648438 -26.234375 34.648438 -19.25 C 34.648438 -12.265625 29.535156 -6.984375 22.660156 -6.984375 Z M 22.660156 -6.984375" transform="translate(77.085 113.325)"/></g></g></g><g fill="#FFBD59"><g><g><path d="M 22.660156 0.878906 C 34.375 0.878906 43.117188 -7.753906 43.117188 -19.25 C 43.117188 -30.6875 34.375 -39.324219 22.660156 -39.324219 C 10.890625 -39.324219 2.089844 -30.632812 2.089844 -19.25 C 2.089844 -7.808594 10.890625 0.878906 22.660156 0.878906 Z M 22.660156 -6.984375 C 15.785156 -6.984375 10.558594 -12.320312 10.558594 -19.25 C 10.558594 -26.179688 15.785156 -31.457031 22.660156 -31.457031 C 29.535156 -31.457031 34.648438 -26.234375 34.648438 -19.25 C 34.648438 -12.265625 29.535156 -6.984375 22.660156 -6.984375 Z M 22.660156 -6.984375" transform="translate(122.347 113.325)"/></g></g></g><g fill="#FFBD59"><g><g><path d="M 28.765625 -38.5 L 28.765625 -15.015625 L 11.878906 -38.5 L 4.398438 -38.5 L 4.398438 0 L 12.539062 0 L 12.539062 -24.035156 L 29.972656 0 L 36.957031 0 L 36.957031 -38.5 Z M 28.765625 -38.5" transform="translate(167.609 113.325)"/></g></g></g></svg>